first trial
nRows=4
nColumns=179

# SIMM Motion File Header:
name first trial
datacolumns 179
datarows 4
otherdata 1
endheader
time	pelvis_tx	pelvis_ty	pelvis_tz	pelvis_list	pelvis_rotation	pelvis_tilt	hip_flexion_r	hip_adduction_r	hip_rotation_r	knee_angle_r	ankle_angle_r	hip_flexion_l	hip_adduction_l	hip_rotation_l	knee_angle_l	ankle_angle_l	lumbar_extension	lumbar_bending	lumbar_rotation	arm_add_r	arm_rot_r	arm_flex_r	elbow_flex_r	pro_sup_r	wrist_dev_r	wrist_flex_r	arm_add_l	arm_rot_l	arm_flex_l	elbow_flex_l	pro_sup_l	wrist_dev_l	wrist_flex_l	subtalar_angle_r	mtp_angle_r	subtalar_angle_l	mtp_angle_l	R.ASIS_tx	R.ASIS_ty	R.ASIS_tz	L.ASIS_tx	L.ASIS_ty	L.ASIS_tz	V.Sacral_tx	V.Sacral_ty	V.Sacral_tz	R.Thigh.Upper_tx	R.Thigh.Upper_ty	R.Thigh.Upper_tz	R.Thigh.Front_tx	R.Thigh.Front_ty	R.Thigh.Front_tz	R.Thigh.Rear_tx	R.Thigh.Rear_ty	R.Thigh.Rear_tz	L.Thigh.Upper_tx	L.Thigh.Upper_ty	L.Thigh.Upper_tz	L.Thigh.Front_tx	L.Thigh.Front_ty	L.Thigh.Front_tz	L.Thigh.Rear_tx	L.Thigh.Rear_ty	L.Thigh.Rear_tz	R.Shank.Upper_tx	R.Shank.Upper_ty	R.Shank.Upper_tz	R.Shank.Front_tx	R.Shank.Front_ty	R.Shank.Front_tz	R.Shank.Rear_tx	R.Shank.Rear_ty	R.Shank.Rear_tz	L.Shank.Upper_tx	L.Shank.Upper_ty	L.Shank.Upper_tz	L.Shank.Front_tx	L.Shank.Front_ty	L.Shank.Front_tz	L.Shank.Rear_tx	L.Shank.Rear_ty	L.Shank.Rear_tz	R.Heel_tx	R.Heel_ty	R.Heel_tz	R.Midfoot.Sup_tx	R.Midfoot.Sup_ty	R.Midfoot.Sup_tz	R.Midfoot.Lat_tx	R.Midfoot.Lat_ty	R.Midfoot.Lat_tz	R.Toe.Tip_tx	R.Toe.Tip_ty	R.Toe.Tip_tz	L.Heel_tx	L.Heel_ty	L.Heel_tz	L.Midfoot.Sup_tx	L.Midfoot.Sup_ty	L.Midfoot.Sup_tz	L.Midfoot.Lat_tx	L.Midfoot.Lat_ty	L.Midfoot.Lat_tz	L.Toe.Tip_tx	L.Toe.Tip_ty	L.Toe.Tip_tz	Sternum_tx	Sternum_ty	Sternum_tz	R.Acromium_tx	R.Acromium_ty	R.Acromium_tz	L.Acromium_tx	L.Acromium_ty	L.Acromium_tz	R.Bicep_tx	R.Bicep_ty	R.Bicep_tz	L.Bicep_tx	L.Bicep_ty	L.Bicep_tz	R.Elbow_tx	R.Elbow_ty	R.Elbow_tz	L.Elbow_tx	L.Elbow_ty	L.Elbow_tz	R.Wrist.Med_tx	R.Wrist.Med_ty	R.Wrist.Med_tz	R.Wrist.Lat_tx	R.Wrist.Lat_ty	R.Wrist.Lat_tz	L.Wrist.Med_tx	L.Wrist.Med_ty	L.Wrist.Med_tz	L.Wrist.Lat_tx	L.Wrist.Lat_ty	L.Wrist.Lat_tz	R.Toe.Lat_tx	R.Toe.Lat_ty	R.Toe.Lat_tz	R.Toe.Med_tx	R.Toe.Med_ty	R.Toe.Med_tz	L.Toe.Lat_tx	L.Toe.Lat_ty	L.Toe.Lat_tz	L.Toe.Med_tx	L.Toe.Med_ty	L.Toe.Med_tz	R.Temple_tx	R.Temple_ty	R.Temple_tz	L.Temple_tx	L.Temple_ty	L.Temple_tz	Top.Head_tx	Top.Head_ty	Top.Head_tz	ground_force_vx	ground_force_vy	ground_force_vz	ground_force_px	ground_force_py	ground_force_pz	ground_force_vx	ground_force_vy	ground_force_vz	ground_force_px	ground_force_py	ground_force_pz	ground_torque_x	ground_torque_y	ground_torque_z	ground_torque_x	ground_torque_y	ground_torque_z
      0.80000000	      0.60356602	      1.01402712	      0.01695843	     -1.04269207	      3.24886511	      9.49809356	     13.47624276	      0.05453080	     -7.04184852	    -27.13245557	      5.07382877	    -11.19802490	     -3.47142097	     -0.59963767	    -53.39262259	     -1.52211420	    -24.21610434	      6.76084715	    -12.30648065	    -10.68181788	     44.63803835	     17.67205031	      0.00000000	     69.95167468	      0.00000000	      0.00000000	    -10.01121081	    -27.43987186	     13.22826372	      0.00000000	     90.00000018	      0.00000000	     -1.37509871	      0.00000000	      0.00000000	      0.00000000	      0.00000000	      0.63435748	      1.06015820	      0.14747806	      0.62454095	      1.04261169	     -0.11292963	      0.43283682	      1.04905029	      0.03808908	      0.67296527	      0.75079553	      0.20075594	      0.74540131	      0.70932294	      0.10700906	      0.70217255	      0.63227533	      0.19067976	      0.54239130	      0.74434186	     -0.17373817	      0.64094635	      0.69794489	     -0.13018163	      0.53759814	      0.63450513	     -0.16690616	      0.67701007	      0.45571298	      0.17943507	      0.75525031	      0.42554080	      0.12144856	      0.69529523	      0.37096024	      0.18433290	      0.44903857	      0.45453229	     -0.17296315	      0.45074399	      0.38284402	     -0.12097533	      0.40211847	      0.44050677	     -0.17338676	      0.62368488	      0.06874004	      0.09599299	      0.76853107	      0.07952522	      0.07033880	      0.75587280	      0.06388636	      0.17701779	      0.91069745	      0.05357668	      0.11969183	      0.12673369	      0.27736334	     -0.06756502	      0.21924910	      0.13893431	     -0.04617688	      0.19369308	      0.13676077	     -0.14000264	      0.25825031	      0.03829712	     -0.06906775	      0.65465436	      1.36041003	      0.02949841	      0.55334174	      1.44001074	      0.24358282	      0.59186255	      1.48393896	     -0.17095544	      0.54739703	      1.23944910	      0.28355978	      0.61382062	      1.24787781	     -0.21192203	      0.49894208	      1.13706873	      0.30626254	      0.56867889	      1.15256116	     -0.25693314	      0.64467841	      0.90990588	      0.30470880	      0.60095593	      0.89338794	      0.34977509	      0.68053625	      0.92610382	     -0.21672153	      0.64182678	      0.91895624	     -0.28153860	      0.84277002	      0.04166091	      0.19422775	      0.85570813	      0.05021939	      0.08604343	      0.20360414	      0.07251083	     -0.14570297	      0.23315720	      0.07211302	     -0.04470203	      0.72242670	      1.57785022	      0.12506408	      0.73492151	      1.58447119	     -0.01302259	      0.73450037	      1.75579395	      0.06964590	    -89.65562377	    762.69282398	    -45.60736613	      0.71845580	     -0.00750000	      0.12289718	     -1.80266022	      8.04292883	      2.96023421	      0.26533090	     -0.00750000	     -0.06700158	      0.00000000	     -0.69198260	      0.00000000	      0.02329752	      0.04585910	      0.33003158
      0.81700000	      0.60373309	      1.01648815	      0.02053928	     -1.75063102	      3.35715513	      9.51909851	     11.94159705	      1.14071170	     -7.24579268	    -26.51707691	      5.91763955	     -8.16111748	     -4.96372754	     -1.50459108	    -58.24937196	     -3.78176440	    -24.12974856	      7.46710099	    -11.62486245	    -10.76555752	     44.59439611	     18.15610194	      0.00000000	     69.80672240	      0.00000000	      0.00000000	     -9.75477178	    -26.84353895	     12.36525482	      0.00000000	     90.00000018	      0.00000000	     -1.43239449	      0.00000000	      0.00000000	      0.00000000	      0.00000000	      0.63515204	      1.06336389	      0.15033862	      0.62471930	      1.04479651	     -0.10949049	      0.43270337	      1.05178113	      0.04074091	      0.66814355	      0.75106262	      0.20366200	      0.73938239	      0.70850952	      0.10947292	      0.69263556	      0.63182721	      0.19251799	      0.55399829	      0.74436346	     -0.17222495	      0.65340112	      0.70210138	     -0.12970952	      0.55202985	      0.63438763	     -0.16538380	      0.66461914	      0.45666394	      0.17963882	      0.74013116	      0.42332495	      0.12453117	      0.68047217	      0.37067773	      0.18616609	      0.47183469	      0.45619611	     -0.17113629	      0.46943130	      0.38630591	     -0.11885034	      0.42410724	      0.44516104	     -0.17262761	      0.60478668	      0.06882948	      0.09617870	      0.74978357	      0.07919132	      0.07023026	      0.73716559	      0.06378000	      0.17705617	      0.89196967	      0.05252409	      0.11981828	      0.14610300	      0.29495358	     -0.06356606	      0.23078491	      0.14547762	     -0.04686364	      0.20298442	      0.15124498	     -0.13932655	      0.26267563	      0.04200045	     -0.07255251	      0.65274066	      1.36268018	      0.03319337	      0.55322369	      1.44252161	      0.24627740	      0.59011920	      1.48678833	     -0.16800812	      0.55090326	      1.24146912	      0.28658072	      0.60956714	      1.25082947	     -0.20874847	      0.50421915	      1.13891821	      0.31014709	      0.56366522	      1.15694714	     -0.25446213	      0.65250568	      0.91338898	      0.30678442	      0.60840863	      0.89590912	      0.35260941	      0.67031097	      0.92775745	     -0.21644623	      0.62979742	      0.92068103	     -0.27951941	      0.82438184	      0.04086806	      0.19499274	      0.83679547	      0.04939438	      0.08592486	      0.21198630	      0.08559881	     -0.14714766	      0.24088771	      0.08195117	     -0.04677304	      0.72179956	      1.58035144	      0.12788162	      0.73471124	      1.58810059	     -0.00986610	      0.73403046	      1.75903894	      0.07291405	    -80.81845822	    765.77351949	    -44.55304064	      0.70532228	     -0.00750000	      0.12476544	      0.00000000	      0.00000000	      0.00000000	      0.27626128	     -0.00750000	     -0.06635655	      0.00000000	     -0.35983754	      0.00000000	      0.00000000	      0.00000000	      0.00000000
      0.83300000	      0.60347422	      1.01939855	      0.02390186	     -2.18636271	      3.42966223	      9.60312356	     10.30530840	      1.95986493	     -7.29029290	    -25.79887715	      6.71229651	     -5.31709730	     -6.22731812	     -2.36000384	    -62.35117373	     -4.53661893	    -24.21123670	      7.79287972	    -10.76121151	    -10.88346938	     44.60534220	     18.59732504	      0.00000000	     69.73373190	      0.00000000	      0.00000000	     -9.49025831	    -25.88994395	     11.52638425	      0.00000000	     90.00000018	      0.00000000	     -1.48969027	      0.00000000	      0.00000000	      0.00000000	      0.00000000	      0.63507892	      1.06614453	      0.15313170	      0.62420239	      1.04806616	     -0.10665700	      0.43225534	      1.05481750	      0.04319750	      0.66131775	      0.75188519	      0.20583504	      0.73315112	      0.70690869	      0.11104426	      0.68302856	      0.63216266	      0.19444341	      0.56487885	      0.74552637	     -0.17010245	      0.66612646	      0.70687555	     -0.12841917	      0.56771960	      0.63581647	     -0.16411342	      0.65086884	      0.45677951	      0.18092041	      0.72655365	      0.42301157	      0.12542301	      0.66623047	      0.37072491	      0.18720024	      0.49347903	      0.46122220	     -0.17079294	      0.48924768	      0.39064575	     -0.11822493	      0.44574722	      0.45066492	     -0.17113152	      0.58577399	      0.06904581	      0.09633852	      0.73089990	      0.07894987	      0.07006446	      0.71835400	      0.06364748	      0.17703932	      0.87320142	      0.05186968	      0.11994408	      0.16557033	      0.30787402	     -0.05903886	      0.24809256	      0.14686874	     -0.04759156	      0.21677582	      0.16406604	     -0.13814273	      0.27479230	      0.04847638	     -0.07612045	      0.65226862	      1.36608130	      0.03484143	      0.55474103	      1.44564197	      0.24914523	      0.58777850	      1.49052527	     -0.16559883	      0.55524835	      1.24449902	      0.28930008	      0.60498785	      1.25406970	     -0.20651230	      0.50934860	      1.14112146	      0.31376727	      0.55630182	      1.16097412	     -0.25205185	      0.66027478	      0.91703558	      0.30856006	      0.61690656	      0.89950958	      0.35512601	      0.65849927	      0.92840881	     -0.21519710	      0.61620020	      0.92366382	     -0.27820279	      0.80529333	      0.04063183	      0.19445464	      0.81794843	      0.04882759	      0.08570110	      0.22908653	      0.09942738	     -0.14866911	      0.25549419	      0.09151257	     -0.04865517	      0.72142114	      1.58366003	      0.13040100	      0.73366571	      1.59142139	     -0.00704941	      0.73324731	      1.76221899	      0.07633083	    -74.22803406	    754.67823044	    -44.56824251	      0.69352666	     -0.00750000	      0.12617162	      0.00000000	      0.00000000	      0.00000000	      0.28863388	     -0.00750000	     -0.06562642	      0.00000000	     -0.21752304	      0.00000000	      0.00000000	      0.00000000	      0.00000000
      0.85000000	      0.60306575	      1.02265026	      0.02733623	     -2.59879253	      3.35241301	      9.74803119	      8.40329525	      2.79858071	     -7.18078980	    -24.62081173	      7.28703839	     -2.69263305	     -7.37582024	     -3.12924069	    -65.70080583	     -4.01778665	    -24.45082592	      7.99883956	     -9.85582444	    -10.99394648	     44.52494950	     19.08828048	      0.00000000	     69.52106289	      0.00000000	      0.00000000	     -9.41205555	    -24.31764632	     10.84847547	      0.00000000	     90.00000018	      0.00000000	     -1.54698605	      0.00000000	      0.00000000	      0.00000000	      0.00000000	      0.63426837	      1.06904907	      0.15599287	      0.62410773	      1.05175049	     -0.10409590	      0.43162726	      1.05803186	      0.04542835	      0.65294257	      0.75189929	      0.20788287	      0.72370630	      0.70594183	      0.11290775	      0.67331567	      0.63187604	      0.19611324	      0.57491840	      0.74780585	     -0.16759483	      0.67726013	      0.71349792	     -0.12629363	      0.58277557	      0.63831036	     -0.16173434	      0.63603668	      0.45666544	      0.18171382	      0.71134149	      0.42172928	      0.12592239	      0.65095898	      0.37016360	      0.18778432	      0.51446625	      0.46704691	     -0.16769362	      0.51149210	      0.39573819	     -0.11876701	      0.46681122	      0.45645859	     -0.16912869	      0.56669263	      0.06934644	      0.09642507	      0.71192450	      0.07876904	      0.06995215	      0.69943243	      0.06351681	      0.17704251	      0.85435199	      0.05138422	      0.12007543	      0.18501103	      0.31594711	     -0.05446233	      0.27043073	      0.14357278	     -0.04819133	      0.23498024	      0.17422797	     -0.13668585	      0.29421143	      0.05622938	     -0.07906348	      0.65218140	      1.36908618	      0.03586434	      0.55580414	      1.44869629	      0.25120660	      0.58589508	      1.49359448	     -0.16412961	      0.55875806	      1.24691174	      0.29221210	      0.60080267	      1.25723816	     -0.20488397	      0.51428558	      1.14361401	      0.31708560	      0.55062231	      1.16431152	     -0.24922427	      0.66787079	      0.92170490	      0.31058398	      0.62481042	      0.90348328	      0.35759152	      0.64643835	      0.92949695	     -0.21406587	      0.60716022	      0.92639148	     -0.27908258	      0.78606927	      0.04069310	      0.19428995	      0.79920947	      0.04850068	      0.08549307	      0.25342897	      0.11211583	     -0.14991109	      0.27610641	      0.09978730	     -0.04998164	      0.72152258	      1.58674573	      0.13339601	      0.73372235	      1.59487854	     -0.00482135	      0.73283160	      1.76544409	      0.07905663	    -66.70916641	    726.77492414	    -44.82746755	      0.68204402	     -0.00750000	      0.12782648	      0.00000000	      0.00000000	      0.00000000	      0.30371081	     -0.00750000	     -0.06473671	      0.00000000	     -0.22090003	      0.00000000	      0.00000000	      0.00000000	      0.00000000
